<svg width="114" height="33" viewBox="0 0 114 33" fill="none" xmlns="http://www.w3.org/2000/svg">
<circle cx="3" cy="19.0005" r="3" transform="rotate(-90 3 19.0005)" fill="#FB017F"/>
<rect x="2" y="16.0006" width="0.00113333" height="2" transform="rotate(-90 2 16.0006)" fill="#FB017F"/>
<circle cx="3" cy="12.9995" r="3" transform="rotate(-90 3 12.9995)" fill="#FB017F"/>
<circle cx="12" cy="21.5" r="3" transform="rotate(-90 12 21.5)" fill="#D601A6"/>
<rect x="11" y="18.7667" width="4.53333" height="2" transform="rotate(-90 11 18.7667)" fill="#D601A6"/>
<circle cx="12" cy="11.5" r="3" transform="rotate(-90 12 11.5)" fill="#D601A6"/>
<circle cx="21" cy="25.5" r="3" transform="rotate(-90 21 25.5)" fill="#A103D0"/>
<rect x="20" y="23.3" width="13.6" height="2" transform="rotate(-90 20 23.3)" fill="#A103D0"/>
<circle cx="21" cy="7.5" r="3" transform="rotate(-90 21 7.5)" fill="#A103D0"/>
<circle cx="30" cy="29.5" r="3" transform="rotate(-90 30 29.5)" fill="#6A03D0"/>
<rect x="29" y="27.8334" width="22.6667" height="2" transform="rotate(-90 29 27.8334)" fill="#6A03D0"/>
<circle cx="30" cy="3.5" r="3" transform="rotate(-90 30 3.5)" fill="#6A03D0"/>
<circle cx="39" cy="25.5" r="3" transform="rotate(-90 39 25.5)" fill="#A103D0"/>
<rect x="38" y="23.3" width="13.6" height="2" transform="rotate(-90 38 23.3)" fill="#A103D0"/>
<circle cx="39" cy="7.5" r="3" transform="rotate(-90 39 7.5)" fill="#A103D0"/>
<circle cx="48" cy="21.5" r="3" transform="rotate(-90 48 21.5)" fill="#D601A6"/>
<rect x="47" y="18.7667" width="4.53333" height="2" transform="rotate(-90 47 18.7667)" fill="#D601A6"/>
<circle cx="48" cy="11.5" r="3" transform="rotate(-90 48 11.5)" fill="#D601A6"/>
<circle cx="57" cy="19.0005" r="3" transform="rotate(-90 57 19.0005)" fill="#FB017F"/>
<rect x="56" y="16.0006" width="0.00113333" height="2" transform="rotate(-90 56 16.0006)" fill="#FB017F"/>
<circle cx="57" cy="12.9995" r="3" transform="rotate(-90 57 12.9995)" fill="#FB017F"/>
<circle cx="66" cy="21.5" r="3" transform="rotate(-90 66 21.5)" fill="#D601A6"/>
<rect x="65" y="18.7667" width="4.53333" height="2" transform="rotate(-90 65 18.7667)" fill="#D601A6"/>
<circle cx="66" cy="11.5" r="3" transform="rotate(-90 66 11.5)" fill="#D601A6"/>
<circle cx="75" cy="25.5" r="3" transform="rotate(-90 75 25.5)" fill="#A103D0"/>
<rect x="74" y="23.3" width="13.6" height="2" transform="rotate(-90 74 23.3)" fill="#A103D0"/>
<circle cx="75" cy="7.5" r="3" transform="rotate(-90 75 7.5)" fill="#A103D0"/>
<circle cx="84" cy="29.5" r="3" transform="rotate(-90 84 29.5)" fill="#6A03D0"/>
<rect x="83" y="27.8334" width="22.6667" height="2" transform="rotate(-90 83 27.8334)" fill="#6A03D0"/>
<circle cx="84" cy="3.5" r="3" transform="rotate(-90 84 3.5)" fill="#6A03D0"/>
<circle cx="93" cy="25.5" r="3" transform="rotate(-90 93 25.5)" fill="#A103D0"/>
<rect x="92" y="23.3" width="13.6" height="2" transform="rotate(-90 92 23.3)" fill="#A103D0"/>
<circle cx="93" cy="7.5" r="3" transform="rotate(-90 93 7.5)" fill="#A103D0"/>
<circle cx="102" cy="21.5" r="3" transform="rotate(-90 102 21.5)" fill="#D601A6"/>
<rect x="101" y="18.7667" width="4.53333" height="2" transform="rotate(-90 101 18.7667)" fill="#D601A6"/>
<circle cx="102" cy="11.5" r="3" transform="rotate(-90 102 11.5)" fill="#D601A6"/>
<circle cx="111" cy="19.0005" r="3" transform="rotate(-90 111 19.0005)" fill="#FB017F"/>
<rect x="110" y="16.0006" width="0.00113333" height="2" transform="rotate(-90 110 16.0006)" fill="#FB017F"/>
<circle cx="111" cy="12.9995" r="3" transform="rotate(-90 111 12.9995)" fill="#FB017F"/>
</svg>
